<svg xmlns="http://www.w3.org/2000/svg" version="1.1" xmlns:xlink="http://www.w3.org/1999/xlink" xmlns:svgjs="http://svgjs.com/svgjs" width="1440" height="560" preserveAspectRatio="none" viewBox="0 0 1440 560"><g mask="url(&quot;#SvgjsMask1000&quot;)" fill="none"><rect width="1440" height="560" x="0" y="0" fill="#0e2a47"></rect><path d="M357.61 484.74 L285.44 435.87L377.4257596966004 404.4042403033996z" stroke="#037b0b" stroke-width="1.96" stroke-dasharray="3, 2"></path><path d="M203.54 46.15L213.58 54.11 208.02 65.65 218.06 73.6 212.5 85.14 222.54 93.09 216.98 104.63M195.75 47.95L205.78 55.9 200.23 67.44 210.26 75.39 204.7 86.93 214.74 94.88 209.18 106.42" stroke="#e73635" stroke-width="2.75" stroke-dasharray="3, 3"></path><rect width="167.28" height="167.28" clip-path="url(&quot;#SvgjsClipPath1001&quot;)" x="688.79" y="-79.88" fill="url(#SvgjsPattern1002)" transform="rotate(332.14, 772.43, 3.76)"></rect><rect width="299.2" height="299.2" clip-path="url(&quot;#SvgjsClipPath1003&quot;)" x="407.21" y="197.43" fill="url(#SvgjsPattern1004)" transform="rotate(313.7, 556.81, 347.03)"></rect><rect width="67.2" height="67.2" clip-path="url(&quot;#SvgjsClipPath1005&quot;)" x="201.39" y="26.81" fill="url(#SvgjsPattern1006)" transform="rotate(229.26, 234.99, 60.41)"></rect><circle r="46.666666666666664" cx="258.05" cy="557.14" fill="#d3b714"></circle><path d="M440.74 93.13a5.6 5.6 0 1 0-8.95 6.73 5.6 5.6 0 1 0 8.95-6.73zM427.95 102.74a5.6 5.6 0 1 0-8.95 6.74 5.6 5.6 0 1 0 8.95-6.74zM415.16 112.36a5.6 5.6 0 1 0-8.95 6.73 5.6 5.6 0 1 0 8.95-6.73zM402.38 121.98a5.6 5.6 0 1 0-8.95 6.73 5.6 5.6 0 1 0 8.95-6.73zM456.69 61.1a5.6 5.6 0 1 0-8.95 6.74 5.6 5.6 0 1 0 8.95-6.74zM443.91 70.72a5.6 5.6 0 1 0-8.95 6.73 5.6 5.6 0 1 0 8.95-6.73zM431.12 80.34a5.6 5.6 0 1 0-8.95 6.73 5.6 5.6 0 1 0 8.95-6.73zM418.33 89.96a5.6 5.6 0 1 0-8.95 6.73 5.6 5.6 0 1 0 8.95-6.73zM472.65 29.08a5.6 5.6 0 1 0-8.95 6.73 5.6 5.6 0 1 0 8.95-6.73zM459.86 38.7a5.6 5.6 0 1 0-8.95 6.73 5.6 5.6 0 1 0 8.95-6.73zM447.07 48.32a5.6 5.6 0 1 0-8.95 6.73 5.6 5.6 0 1 0 8.95-6.73zM434.29 57.93a5.6 5.6 0 1 0-8.95 6.74 5.6 5.6 0 1 0 8.95-6.74z" fill="#e73635"></path><rect width="108" height="108" clip-path="url(&quot;#SvgjsClipPath1007&quot;)" x="-39.72" y="263.07" fill="url(#SvgjsPattern1008)" transform="rotate(301.34, 14.28, 317.07)"></rect><rect width="98.2" height="98.2" clip-path="url(&quot;#SvgjsClipPath1009&quot;)" x="247.7" y="278.68" fill="url(#SvgjsPattern1010)" transform="rotate(180.58, 296.8, 327.78)"></rect><path d="M542.62 653.61 L519.15 546.5600000000001L475.6144261207727 655.3555738792273z" fill="#d3b714"></path><rect width="204" height="204" clip-path="url(&quot;#SvgjsClipPath1011&quot;)" x="1190.28" y="-87.74" fill="url(#SvgjsPattern1012)" transform="rotate(246.76, 1292.28, 14.26)"></rect><rect width="172.04000000000002" height="172.04000000000002" clip-path="url(&quot;#SvgjsClipPath1013&quot;)" x="72.21" y="363.05" fill="url(#SvgjsPattern1014)" transform="rotate(165.02, 158.23, 449.07)"></rect></g><defs><mask id="SvgjsMask1000"><rect width="1440" height="560" fill="#ffffff"></rect></mask><pattern x="0" y="0" width="13.94" height="13.94" patternUnits="userSpaceOnUse" id="SvgjsPattern1002"><path d="M0 13.94L6.97 0L13.94 13.94" stroke="#d3b714" fill="none"></path></pattern><clipPath id="SvgjsClipPath1001"><circle r="41.82" cx="772.43" cy="3.76"></circle></clipPath><pattern x="0" y="0" width="13.6" height="13.6" patternUnits="userSpaceOnUse" id="SvgjsPattern1004"><path d="M6.8 1L6.8 12.6M1 6.8L12.6 6.8" stroke="#d3b714" fill="none" stroke-width="1.97"></path></pattern><clipPath id="SvgjsClipPath1003"><circle r="74.8" cx="556.81" cy="347.03"></circle></clipPath><pattern x="0" y="0" width="6.72" height="6.72" patternUnits="userSpaceOnUse" id="SvgjsPattern1006"><path d="M3.36 1L3.36 5.72M1 3.36L5.72 3.36" stroke="#e73635" fill="none" stroke-width="1.09"></path></pattern><clipPath id="SvgjsClipPath1005"><circle r="16.8" cx="234.99" cy="60.41"></circle></clipPath><pattern x="0" y="0" width="108" height="6" patternUnits="userSpaceOnUse" id="SvgjsPattern1008"><rect width="108" height="3" x="0" y="0" fill="#e73635"></rect><rect width="108" height="3" x="0" y="3" fill="rgba(0, 0, 0, 0)"></rect></pattern><clipPath id="SvgjsClipPath1007"><circle r="27" cx="14.28" cy="317.07"></circle></clipPath><pattern x="0" y="0" width="9.82" height="9.82" patternUnits="userSpaceOnUse" id="SvgjsPattern1010"><path d="M0 9.82L4.91 0L9.82 9.82" stroke="#e73635" fill="none"></path></pattern><clipPath id="SvgjsClipPath1009"><circle r="24.55" cx="296.8" cy="327.78"></circle></clipPath><pattern x="0" y="0" width="6" height="6" patternUnits="userSpaceOnUse" id="SvgjsPattern1012"><path d="M3 1L3 5M1 3L5 3" stroke="#e73635" fill="none" stroke-width="1.61"></path></pattern><clipPath id="SvgjsClipPath1011"><circle r="51" cx="1292.28" cy="14.26"></circle></clipPath><pattern x="0" y="0" width="7.82" height="7.82" patternUnits="userSpaceOnUse" id="SvgjsPattern1014"><path d="M0 7.82L3.91 0L7.82 7.82" stroke="#d3b714" fill="none"></path></pattern><clipPath id="SvgjsClipPath1013"><circle r="43.010000000000005" cx="158.23" cy="449.07"></circle></clipPath></defs></svg>