<svg xmlns="http://www.w3.org/2000/svg" version="1.1" xmlns:xlink="http://www.w3.org/1999/xlink" xmlns:svgjs="http://svgjs.com/svgjs" width="1440" height="560" preserveAspectRatio="none" viewBox="0 0 1440 560"><g mask="url(&quot;#SvgjsMask1001&quot;)" fill="none"><rect width="1440" height="560" x="0" y="0" fill="rgba(22, 102, 185, 1)"></rect><path d="M284.8 251.8 a32.3 32.3 0 1 0 64.6 0 a32.3 32.3 0 1 0 -64.6 0z" stroke="#e73635"></path><path d="M1123.8 390.74L1144.68 390.74L1144.68 411.62L1123.8 411.62z" stroke="#037b0b"></path><path d="M1039.23 324.97 a3.9 3.9 0 1 0 7.8 0 a3.9 3.9 0 1 0 -7.8 0z" fill="#e73635"></path><path d="M1120.51 313.48L1163.06 313.48L1163.06 354.58L1120.51 354.58z" stroke="#d3b714"></path><path d="M23.01 33.87 a6.93 6.93 0 1 0 13.86 0 a6.93 6.93 0 1 0 -13.86 0z" stroke="#e73635"></path><path d="M312.88 45.3a43.47 43.47 0 1 0-77.12-40.14z" fill="#e73635"></path><path d="M294.08 74.19a33.48 33.48 0 1 0 36.07 56.42z" stroke="#e73635"></path><path d="M1196.2 35.22L1224.74 35.22L1224.74 63.76L1196.2 63.76z" stroke="#037b0b"></path><path d="M288.78 117.83 a3.67 3.67 0 1 0 7.34 0 a3.67 3.67 0 1 0 -7.34 0z" stroke="#d3b714"></path><path d="M1179.75 200.01 a12.51 12.51 0 1 0 25.02 0 a12.51 12.51 0 1 0 -25.02 0z" stroke="#e73635"></path><path d="M677.04 282.91 a2.56 2.56 0 1 0 5.12 0 a2.56 2.56 0 1 0 -5.12 0z" fill="#e73635"></path><path d="M153.41 313.13L169.45 313.13L169.45 345.47L153.41 345.47z" stroke="#e73635"></path><path d="M1395.41 399.48 a2.76 2.76 0 1 0 5.52 0 a2.76 2.76 0 1 0 -5.52 0z" stroke="#037b0b"></path><path d="M1326.05 38.15L1345.51 38.15L1345.51 57.61L1326.05 57.61z" stroke="#e73635"></path><path d="M857.02 557.89L875.05 557.89L875.05 599.04L857.02 599.04z" stroke="#037b0b"></path><path d="M1327.54 263.75 a14.2 14.2 0 1 0 28.4 0 a14.2 14.2 0 1 0 -28.4 0z" fill="#037b0b"></path><path d="M528.84 350.72a18.31 18.31 0 1 0 24.14 27.54z" fill="#037b0b"></path><path d="M145.54 80.56L178.84 80.56L178.84 113.86L145.54 113.86z" fill="#e73635"></path><path d="M497.4 180.96a18.47 18.47 0 1 0 25.95 26.3z" stroke="#037b0b"></path><path d="M436.01 446.06a54.47 54.47 0 1 0-3.47-108.88z" stroke="#e73635"></path><path d="M754 363.38L783.52 363.38L783.52 401.95L754 401.95z" stroke="#d3b714"></path><path d="M72.05 352.29L89 352.29L89 355.01L72.05 355.01z" stroke="#037b0b"></path><path d="M144.68 123.21 a38.27 38.27 0 1 0 76.54 0 a38.27 38.27 0 1 0 -76.54 0z" fill="#d3b714"></path><path d="M488.84 271.29L539.53 271.29L539.53 276.91L488.84 276.91z" stroke="#037b0b"></path><path d="M1197.27 334.66L1229.73 334.66L1229.73 378.29L1197.27 378.29z" fill="#d3b714"></path><path d="M983.54 76.04 a24.52 24.52 0 1 0 49.04 0 a24.52 24.52 0 1 0 -49.04 0z" stroke="#037b0b"></path><path d="M1122.88 381.92 a40.33 40.33 0 1 0 80.66 0 a40.33 40.33 0 1 0 -80.66 0z" fill="#e73635"></path><path d="M999.51 400.62L1049.64 400.62L1049.64 409.51L999.51 409.51z" fill="#037b0b"></path><path d="M1403.43 116.77L1450.61 116.77L1450.61 163.95L1403.43 163.95z" fill="#037b0b"></path><path d="M1408.43 111.23L1408.64 111.23L1408.64 163.67L1408.43 163.67z" fill="#037b0b"></path><path d="M1193.88 379.12L1214.99 379.12L1214.99 402.05L1193.88 402.05z" fill="#d3b714"></path><path d="M340.26 127.23L367.16 127.23L367.16 154.13L340.26 154.13z" fill="#037b0b"></path><path d="M126.35 299.91 a55.61 55.61 0 1 0 111.22 0 a55.61 55.61 0 1 0 -111.22 0z" fill="#037b0b"></path></g><defs><mask id="SvgjsMask1001"><rect width="1440" height="560" fill="#ffffff"></rect></mask></defs></svg>