<svg xmlns="http://www.w3.org/2000/svg" version="1.1" xmlns:xlink="http://www.w3.org/1999/xlink" xmlns:svgjs="http://svgjs.com/svgjs" width="1440" height="560" preserveAspectRatio="none" viewBox="0 0 1440 560"><g mask="url(&quot;#SvgjsMask1128&quot;)" fill="none"><rect width="1440" height="560" x="0" y="0" fill="#0e2a47"></rect><use xlink:href="#SvgjsG1135" transform="translate(0, 0)" fill="rgba(118, 10, 184, 1)"></use><use xlink:href="#SvgjsG1135" transform="translate(0, 552)" fill="rgba(118, 10, 184, 1)"></use><use xlink:href="#SvgjsG1135" transform="translate(552, 0)" fill="rgba(118, 10, 184, 1)"></use><use xlink:href="#SvgjsG1135" transform="translate(552, 552)" fill="rgba(118, 10, 184, 1)"></use><use xlink:href="#SvgjsG1135" transform="translate(1104, 0)" fill="rgba(118, 10, 184, 1)"></use><use xlink:href="#SvgjsG1135" transform="translate(1104, 552)" fill="rgba(118, 10, 184, 1)"></use></g><defs><mask id="SvgjsMask1128"><rect width="1440" height="560" fill="#ffffff"></rect></mask><g id="SvgjsG1129"><path d="M6.43 9.22L12.36 3.89l1.48 1.64-5.93 5.34z"></path><path d="M7.2 0.4l2.53 0.14-0.42 8.01L6.78 8.42z"></path><path d="M7.92 10.88L2.58 4.95l1.64-1.48L9.57 9.4zM0.93 12.91l13.72 0.72-0.12 2.27L0.81 15.18z"></path><path d="M0.68 8.76l2.27 0.12-0.34 6.39-2.26-0.12z m12.25 0.64l2.27 0.12-0.34 6.39-2.26-0.12z"></path></g><g id="SvgjsG1134"><path d="M3.32 10.73C3.5 7.43 8.48 0.38 8.48 0.38s4.21 7.54 4.04 10.83c-0.12 2.24-1.75 4.69-4.85 4.52-3.09-0.16-4.46-2.76-4.35-5z" fill-rule="evenodd"></path></g><g id="SvgjsG1132"><path d="M7.32 15.46C3.07 15.24-0.2 11.6 0.02 7.35 0.25 3.1 3.88-0.18 8.13 0.05S15.66 3.91 15.43 8.16c-0.22 4.25-3.86 7.52-8.11 7.3z m0.1-1.91c3.2 0.17 5.94-2.3 6.11-5.49 0.17-3.19-2.3-5.94-5.5-6.11-3.2-0.17-5.93 2.3-6.1 5.5-0.17 3.2 2.29 5.94 5.49 6.1z"></path><path d="M7.71 8.77a0.57 0.57 0 0 1-0.55-0.07 0.58 0.58 0 0 1-0.24-0.41L7.15 3.81a0.58 0.58 0 0 1 1.16 0.06l-0.18 3.48 3.04-1.25a0.58 0.58 0 0 1 0.76 0.32c0.12 0.3-0.02 0.64-0.32 0.76l-3.9 1.59z"></path></g><g id="SvgjsG1133"><path d="M11.97 8.45a46.75 46.75 0 0 1-0.5-0.43c-0.14-0.12-0.28-0.25-0.42-0.37-0.84-0.73-1.73-1.41-2.74-1.56A2.81 2.81 0 0 0 8.06 6.07c-0.09 0-0.17 0-0.26 0-1.03 0.04-1.98 0.61-2.9 1.26l0.09 0.08c0.1 0.09 0.2 0.18 0.31 0.27C6.21 7.04 7.1 6.53 8.03 6.58c0.93 0.05 1.75 0.65 2.59 1.37a35.1 35.1 0 0 1 0.51 0.45c0.14 0.12 0.27 0.24 0.41 0.36C12.46 9.56 13.42 10.29 14.54 10.35c0.44 0.02 0.86-0.06 1.27-0.21l0.03-0.56c-0.42 0.18-0.84 0.28-1.27 0.26-0.93-0.05-1.76-0.66-2.6-1.39z"></path><path d="M11.6 7.68c0.03 0.02 0.06 0.05 0.08 0.08 0.1 0.09 0.21 0.18 0.31 0.27 0.33-0.23 0.66-0.44 0.99-0.62l-0.08 1.37c0.16 0.12 0.33 0.23 0.5 0.33L13.5 7.16c0.32-0.13 0.65-0.21 0.97-0.23l-0.13 2.54c0.08 0.01 0.16 0.03 0.24 0.03 0.09 0 0.18 0 0.27-0.01L14.98 6.96c0.34 0.05 0.66 0.18 0.98 0.35L15.99 6.75C15.6 6.57 15.19 6.44 14.76 6.42c-1.13-0.06-2.16 0.57-3.16 1.26z m-7.3 0.7c-0.03-0.03-0.07-0.06-0.1-0.08-0.1-0.09-0.2-0.17-0.29-0.26-0.91 0.63-1.8 1.15-2.73 1.09C0.75 9.11 0.35 8.96-0.05 8.73l-0.03 0.56C0.31 9.49 0.72 9.62 1.15 9.64c1.12 0.06 2.15-0.57 3.15-1.26z"></path><path d="M0.94 8.76c0.08 0.02 0.17 0.03 0.25 0.04 0.09 0 0.17 0 0.26-0.01L1.58 6.25c0.33 0.05 0.64 0.17 0.95 0.34 0 0.01-0.01 0.02-0.01 0.03l-0.1 1.9a5.82 5.82 0 0 0 0.53-0.27L3.02 6.89c0.47 0.33 0.93 0.73 1.41 1.16C5.47 8.97 6.55 9.93 7.84 9.99c1.12 0.06 2.15-0.56 3.15-1.25l-0.1-0.09c-0.1-0.09-0.2-0.17-0.29-0.26-0.33 0.23-0.65 0.43-0.97 0.61L9.7 7.65A5.82 5.82 0 0 0 9.21 7.32l-0.1 1.89c0 0.01 0 0.02 0 0.03-0.32 0.13-0.65 0.22-0.98 0.24L8.27 6.95a1.97 1.97 0 0 0-0.27-0.03c-0.08 0-0.16 0-0.24 0l-0.14 2.54c-0.33-0.05-0.64-0.17-0.95-0.34 0-0.01 0.01-0.02 0.01-0.03L6.78 7.18a5.63 5.63 0 0 0-0.53 0.28l-0.07 1.36c-0.47-0.32-0.94-0.74-1.41-1.15C3.73 6.74 2.65 5.78 1.35 5.72c-0.43-0.02-0.85 0.05-1.25 0.18l-0.03 0.55c0.33-0.13 0.66-0.21 1-0.22L0.94 8.76z"></path></g><g id="SvgjsG1131"><path d="M2.5 8.35L-0.01 8.22 0.06 6.89l2.51 0.13-0.07 1.33zM3.84 4.35L2.16 2.49l0.99-0.88 1.67 1.86-0.98 0.88z m-0.36 6.81l0.89 0.98-1.86 1.68-0.89-0.98 1.86-1.68z m5.46-8.61l-1.33-0.07L7.74-0.03l1.33 0.07-0.13 2.51z m-1.9 10.87l1.33 0.07-0.14 2.5-1.32-0.07 0.13-2.5zM12.52 4.81l-0.91-0.99 1.88-1.67 0.89 0.98-1.86 1.68z m-0.36 6.78l1.68 1.89-0.99 0.88-1.67-1.86 0.98-0.91z m3.85-3.86l-0.07 1.32-2.5-0.13L13.51 7.6l2.5 0.13z"></path><path d="M3.71 7.76a4.18 4.18 0 1 0 8.36 0.44 4.18 4.18 0 1 0-8.36-0.44"></path></g><g id="SvgjsG1130"><path d="M15.15 9.81c0.29 0.02 0.58-0.21 0.64-0.5 0 0 0.08-0.41 0.1-0.9s-0.01-0.9-0.01-0.9c-0.03-0.29-0.29-0.55-0.58-0.56l-1.52-0.08c-0.29-0.02-0.59-0.22-0.66-0.45s-0.14-0.98 0.08-1.17l1.13-1.02c0.22-0.2 0.25-0.55 0.08-0.79l-1.2-1.34c-0.22-0.2-0.57-0.2-0.79 0l-1.14 1.02c-0.22 0.2-0.57 0.26-0.78 0.14s-0.79-0.59-0.77-0.88L9.81 0.85c0.02-0.29-0.21-0.58-0.5-0.64 0 0-0.41-0.08-0.9-0.1s-0.9 0.01-0.9 0.01c-0.29 0.02-0.55 0.29-0.56 0.58l-0.08 1.52c-0.02 0.29-0.22 0.59-0.45 0.66s-0.98 0.14-1.18-0.08l-1.02-1.13C4.03 1.45 3.67 1.41 3.44 1.59l-1.34 1.2c-0.2 0.22-0.2 0.57 0 0.79l1.02 1.13c0.2 0.22 0.26 0.57 0.14 0.79s-0.59 0.79-0.89 0.77L0.85 6.19c-0.29-0.02-0.58 0.21-0.64 0.5 0 0-0.08 0.41-0.1 0.9s0.01 0.9 0.01 0.9c0.02 0.29 0.29 0.55 0.58 0.56l1.52 0.08c0.29 0.02 0.59 0.22 0.66 0.45 0.07 0.23 0.14 0.98-0.08 1.18l-1.13 1.01C1.45 11.97 1.42 12.33 1.59 12.56l1.2 1.34c0.22 0.2 0.57 0.2 0.79 0l1.14-1.02c0.22-0.2 0.57-0.26 0.78-0.14s0.79 0.6 0.77 0.89l-0.08 1.52c-0.02 0.29 0.21 0.58 0.5 0.64 0 0 0.41 0.08 0.9 0.1s0.9-0.01 0.9-0.01c0.29-0.02 0.55-0.29 0.56-0.58l0.08-1.52c0.02-0.29 0.22-0.59 0.45-0.66 0.23-0.07 0.98-0.14 1.18 0.08l1.02 1.13c0.2 0.22 0.55 0.25 0.79 0.08l1.33-1.2c0.2-0.22 0.2-0.57 0-0.79l-1.02-1.13c-0.2-0.22-0.26-0.57-0.14-0.78 0.12-0.21 0.59-0.79 0.89-0.78l1.52 0.08zM7.85 10.89c-1.59-0.08-2.82-1.44-2.74-3.04 0.08-1.59 1.44-2.82 3.04-2.74S10.97 6.56 10.89 8.15 9.44 10.97 7.85 10.89z"></path></g><g id="SvgjsG1135"><use xlink:href="#SvgjsG1129" transform="translate(0, 0) scale(2.3)" fill="rgba(118, 10, 184, 1)"></use><use xlink:href="#SvgjsG1129" transform="translate(0, 55.199999999999996) scale(2.3)" fill="rgba(118, 10, 184, 1)"></use><use xlink:href="#SvgjsG1129" transform="translate(0, 110.39999999999999) scale(2.3)" fill="rgba(118, 10, 184, 1)"></use><use xlink:href="#SvgjsG1130" transform="translate(0, 165.6) scale(2.3)" fill="rgba(118, 10, 184, 1)"></use><use xlink:href="#SvgjsG1131" transform="translate(0, 220.79999999999998) scale(2.3)" fill="rgba(118, 10, 184, 1)"></use><use xlink:href="#SvgjsG1129" transform="translate(0, 276) scale(2.3)" fill="rgba(118, 10, 184, 1)"></use><use xlink:href="#SvgjsG1130" transform="translate(0, 331.2) scale(2.3)" fill="rgba(118, 10, 184, 1)"></use><use xlink:href="#SvgjsG1131" transform="translate(0, 386.4) scale(2.3)" fill="rgba(118, 10, 184, 1)"></use><use xlink:href="#SvgjsG1130" transform="translate(0, 441.59999999999997) scale(2.3)" fill="rgba(118, 10, 184, 1)"></use><use xlink:href="#SvgjsG1131" transform="translate(0, 496.79999999999995) scale(2.3)" fill="rgba(118, 10, 184, 1)"></use><use xlink:href="#SvgjsG1130" transform="translate(55.199999999999996, 0) scale(2.3)" fill="rgba(118, 10, 184, 1)"></use><use xlink:href="#SvgjsG1131" transform="translate(55.199999999999996, 55.199999999999996) scale(2.3)" fill="rgba(118, 10, 184, 1)"></use><use xlink:href="#SvgjsG1132" transform="translate(55.199999999999996, 110.39999999999999) scale(2.3)" fill="rgba(118, 10, 184, 1)"></use><use xlink:href="#SvgjsG1133" transform="translate(55.199999999999996, 165.6) scale(2.3)" fill="rgba(118, 10, 184, 1)"></use><use xlink:href="#SvgjsG1134" transform="translate(55.199999999999996, 220.79999999999998) scale(2.3)" fill="rgba(118, 10, 184, 1)"></use><use xlink:href="#SvgjsG1132" transform="translate(55.199999999999996, 276) scale(2.3)" fill="rgba(118, 10, 184, 1)"></use><use xlink:href="#SvgjsG1131" transform="translate(55.199999999999996, 331.2) scale(2.3)" fill="rgba(118, 10, 184, 1)"></use><use xlink:href="#SvgjsG1133" transform="translate(55.199999999999996, 386.4) scale(2.3)" fill="rgba(118, 10, 184, 1)"></use><use xlink:href="#SvgjsG1134" transform="translate(55.199999999999996, 441.59999999999997) scale(2.3)" fill="rgba(118, 10, 184, 1)"></use><use xlink:href="#SvgjsG1129" transform="translate(55.199999999999996, 496.79999999999995) scale(2.3)" fill="rgba(118, 10, 184, 1)"></use><use xlink:href="#SvgjsG1130" transform="translate(110.39999999999999, 0) scale(2.3)" fill="rgba(118, 10, 184, 1)"></use><use xlink:href="#SvgjsG1130" transform="translate(110.39999999999999, 55.199999999999996) scale(2.3)" fill="rgba(118, 10, 184, 1)"></use><use xlink:href="#SvgjsG1134" transform="translate(110.39999999999999, 110.39999999999999) scale(2.3)" fill="rgba(118, 10, 184, 1)"></use><use xlink:href="#SvgjsG1130" transform="translate(110.39999999999999, 165.6) scale(2.3)" fill="rgba(118, 10, 184, 1)"></use><use xlink:href="#SvgjsG1131" transform="translate(110.39999999999999, 220.79999999999998) scale(2.3)" fill="rgba(118, 10, 184, 1)"></use><use xlink:href="#SvgjsG1132" transform="translate(110.39999999999999, 276) scale(2.3)" fill="rgba(118, 10, 184, 1)"></use><use xlink:href="#SvgjsG1134" transform="translate(110.39999999999999, 331.2) scale(2.3)" fill="rgba(118, 10, 184, 1)"></use><use xlink:href="#SvgjsG1129" transform="translate(110.39999999999999, 386.4) scale(2.3)" fill="rgba(118, 10, 184, 1)"></use><use xlink:href="#SvgjsG1131" transform="translate(110.39999999999999, 441.59999999999997) scale(2.3)" fill="rgba(118, 10, 184, 1)"></use><use xlink:href="#SvgjsG1132" transform="translate(110.39999999999999, 496.79999999999995) scale(2.3)" fill="rgba(118, 10, 184, 1)"></use><use xlink:href="#SvgjsG1133" transform="translate(165.6, 0) scale(2.3)" fill="rgba(118, 10, 184, 1)"></use><use xlink:href="#SvgjsG1133" transform="translate(165.6, 55.199999999999996) scale(2.3)" fill="rgba(118, 10, 184, 1)"></use><use xlink:href="#SvgjsG1129" transform="translate(165.6, 110.39999999999999) scale(2.3)" fill="rgba(118, 10, 184, 1)"></use><use xlink:href="#SvgjsG1129" transform="translate(165.6, 165.6) scale(2.3)" fill="rgba(118, 10, 184, 1)"></use><use xlink:href="#SvgjsG1131" transform="translate(165.6, 220.79999999999998) scale(2.3)" fill="rgba(118, 10, 184, 1)"></use><use xlink:href="#SvgjsG1132" transform="translate(165.6, 276) scale(2.3)" fill="rgba(118, 10, 184, 1)"></use><use xlink:href="#SvgjsG1134" transform="translate(165.6, 331.2) scale(2.3)" fill="rgba(118, 10, 184, 1)"></use><use xlink:href="#SvgjsG1132" transform="translate(165.6, 386.4) scale(2.3)" fill="rgba(118, 10, 184, 1)"></use><use xlink:href="#SvgjsG1129" transform="translate(165.6, 441.59999999999997) scale(2.3)" fill="rgba(118, 10, 184, 1)"></use><use xlink:href="#SvgjsG1130" transform="translate(165.6, 496.79999999999995) scale(2.3)" fill="rgba(118, 10, 184, 1)"></use><use xlink:href="#SvgjsG1132" transform="translate(220.79999999999998, 0) scale(2.3)" fill="rgba(118, 10, 184, 1)"></use><use xlink:href="#SvgjsG1129" transform="translate(220.79999999999998, 55.199999999999996) scale(2.3)" fill="rgba(118, 10, 184, 1)"></use><use xlink:href="#SvgjsG1132" transform="translate(220.79999999999998, 110.39999999999999) scale(2.3)" fill="rgba(118, 10, 184, 1)"></use><use xlink:href="#SvgjsG1133" transform="translate(220.79999999999998, 165.6) scale(2.3)" fill="rgba(118, 10, 184, 1)"></use><use xlink:href="#SvgjsG1129" transform="translate(220.79999999999998, 220.79999999999998) scale(2.3)" fill="rgba(118, 10, 184, 1)"></use><use xlink:href="#SvgjsG1133" transform="translate(220.79999999999998, 276) scale(2.3)" fill="rgba(118, 10, 184, 1)"></use><use xlink:href="#SvgjsG1132" transform="translate(220.79999999999998, 331.2) scale(2.3)" fill="rgba(118, 10, 184, 1)"></use><use xlink:href="#SvgjsG1133" transform="translate(220.79999999999998, 386.4) scale(2.3)" fill="rgba(118, 10, 184, 1)"></use><use xlink:href="#SvgjsG1131" transform="translate(220.79999999999998, 441.59999999999997) scale(2.3)" fill="rgba(118, 10, 184, 1)"></use><use xlink:href="#SvgjsG1129" transform="translate(220.79999999999998, 496.79999999999995) scale(2.3)" fill="rgba(118, 10, 184, 1)"></use><use xlink:href="#SvgjsG1133" transform="translate(276, 0) scale(2.3)" fill="rgba(118, 10, 184, 1)"></use><use xlink:href="#SvgjsG1131" transform="translate(276, 55.199999999999996) scale(2.3)" fill="rgba(118, 10, 184, 1)"></use><use xlink:href="#SvgjsG1130" transform="translate(276, 110.39999999999999) scale(2.3)" fill="rgba(118, 10, 184, 1)"></use><use xlink:href="#SvgjsG1134" transform="translate(276, 165.6) scale(2.3)" fill="rgba(118, 10, 184, 1)"></use><use xlink:href="#SvgjsG1129" transform="translate(276, 220.79999999999998) scale(2.3)" fill="rgba(118, 10, 184, 1)"></use><use xlink:href="#SvgjsG1129" transform="translate(276, 276) scale(2.3)" fill="rgba(118, 10, 184, 1)"></use><use xlink:href="#SvgjsG1129" transform="translate(276, 331.2) scale(2.3)" fill="rgba(118, 10, 184, 1)"></use><use xlink:href="#SvgjsG1129" transform="translate(276, 386.4) scale(2.3)" fill="rgba(118, 10, 184, 1)"></use><use xlink:href="#SvgjsG1130" transform="translate(276, 441.59999999999997) scale(2.3)" fill="rgba(118, 10, 184, 1)"></use><use xlink:href="#SvgjsG1131" transform="translate(276, 496.79999999999995) scale(2.3)" fill="rgba(118, 10, 184, 1)"></use><use xlink:href="#SvgjsG1134" transform="translate(331.2, 0) scale(2.3)" fill="rgba(118, 10, 184, 1)"></use><use xlink:href="#SvgjsG1134" transform="translate(331.2, 55.199999999999996) scale(2.3)" fill="rgba(118, 10, 184, 1)"></use><use xlink:href="#SvgjsG1129" transform="translate(331.2, 110.39999999999999) scale(2.3)" fill="rgba(118, 10, 184, 1)"></use><use xlink:href="#SvgjsG1132" transform="translate(331.2, 165.6) scale(2.3)" fill="rgba(118, 10, 184, 1)"></use><use xlink:href="#SvgjsG1132" transform="translate(331.2, 220.79999999999998) scale(2.3)" fill="rgba(118, 10, 184, 1)"></use><use xlink:href="#SvgjsG1133" transform="translate(331.2, 276) scale(2.3)" fill="rgba(118, 10, 184, 1)"></use><use xlink:href="#SvgjsG1129" transform="translate(331.2, 331.2) scale(2.3)" fill="rgba(118, 10, 184, 1)"></use><use xlink:href="#SvgjsG1134" transform="translate(331.2, 386.4) scale(2.3)" fill="rgba(118, 10, 184, 1)"></use><use xlink:href="#SvgjsG1130" transform="translate(331.2, 441.59999999999997) scale(2.3)" fill="rgba(118, 10, 184, 1)"></use><use xlink:href="#SvgjsG1132" transform="translate(331.2, 496.79999999999995) scale(2.3)" fill="rgba(118, 10, 184, 1)"></use><use xlink:href="#SvgjsG1134" transform="translate(386.4, 0) scale(2.3)" fill="rgba(118, 10, 184, 1)"></use><use xlink:href="#SvgjsG1130" transform="translate(386.4, 55.199999999999996) scale(2.3)" fill="rgba(118, 10, 184, 1)"></use><use xlink:href="#SvgjsG1131" transform="translate(386.4, 110.39999999999999) scale(2.3)" fill="rgba(118, 10, 184, 1)"></use><use xlink:href="#SvgjsG1132" transform="translate(386.4, 165.6) scale(2.3)" fill="rgba(118, 10, 184, 1)"></use><use xlink:href="#SvgjsG1132" transform="translate(386.4, 220.79999999999998) scale(2.3)" fill="rgba(118, 10, 184, 1)"></use><use xlink:href="#SvgjsG1133" transform="translate(386.4, 276) scale(2.3)" fill="rgba(118, 10, 184, 1)"></use><use xlink:href="#SvgjsG1129" transform="translate(386.4, 331.2) scale(2.3)" fill="rgba(118, 10, 184, 1)"></use><use xlink:href="#SvgjsG1130" transform="translate(386.4, 386.4) scale(2.3)" fill="rgba(118, 10, 184, 1)"></use><use xlink:href="#SvgjsG1131" transform="translate(386.4, 441.59999999999997) scale(2.3)" fill="rgba(118, 10, 184, 1)"></use><use xlink:href="#SvgjsG1130" transform="translate(386.4, 496.79999999999995) scale(2.3)" fill="rgba(118, 10, 184, 1)"></use><use xlink:href="#SvgjsG1129" transform="translate(441.59999999999997, 0) scale(2.3)" fill="rgba(118, 10, 184, 1)"></use><use xlink:href="#SvgjsG1129" transform="translate(441.59999999999997, 55.199999999999996) scale(2.3)" fill="rgba(118, 10, 184, 1)"></use><use xlink:href="#SvgjsG1130" transform="translate(441.59999999999997, 110.39999999999999) scale(2.3)" fill="rgba(118, 10, 184, 1)"></use><use xlink:href="#SvgjsG1129" transform="translate(441.59999999999997, 165.6) scale(2.3)" fill="rgba(118, 10, 184, 1)"></use><use xlink:href="#SvgjsG1129" transform="translate(441.59999999999997, 220.79999999999998) scale(2.3)" fill="rgba(118, 10, 184, 1)"></use><use xlink:href="#SvgjsG1132" transform="translate(441.59999999999997, 276) scale(2.3)" fill="rgba(118, 10, 184, 1)"></use><use xlink:href="#SvgjsG1130" transform="translate(441.59999999999997, 331.2) scale(2.3)" fill="rgba(118, 10, 184, 1)"></use><use xlink:href="#SvgjsG1133" transform="translate(441.59999999999997, 386.4) scale(2.3)" fill="rgba(118, 10, 184, 1)"></use><use xlink:href="#SvgjsG1129" transform="translate(441.59999999999997, 441.59999999999997) scale(2.3)" fill="rgba(118, 10, 184, 1)"></use><use xlink:href="#SvgjsG1134" transform="translate(441.59999999999997, 496.79999999999995) scale(2.3)" fill="rgba(118, 10, 184, 1)"></use><use xlink:href="#SvgjsG1134" transform="translate(496.79999999999995, 0) scale(2.3)" fill="rgba(118, 10, 184, 1)"></use><use xlink:href="#SvgjsG1134" transform="translate(496.79999999999995, 55.199999999999996) scale(2.3)" fill="rgba(118, 10, 184, 1)"></use><use xlink:href="#SvgjsG1134" transform="translate(496.79999999999995, 110.39999999999999) scale(2.3)" fill="rgba(118, 10, 184, 1)"></use><use xlink:href="#SvgjsG1129" transform="translate(496.79999999999995, 165.6) scale(2.3)" fill="rgba(118, 10, 184, 1)"></use><use xlink:href="#SvgjsG1132" transform="translate(496.79999999999995, 220.79999999999998) scale(2.3)" fill="rgba(118, 10, 184, 1)"></use><use xlink:href="#SvgjsG1131" transform="translate(496.79999999999995, 276) scale(2.3)" fill="rgba(118, 10, 184, 1)"></use><use xlink:href="#SvgjsG1134" transform="translate(496.79999999999995, 331.2) scale(2.3)" fill="rgba(118, 10, 184, 1)"></use><use xlink:href="#SvgjsG1129" transform="translate(496.79999999999995, 386.4) scale(2.3)" fill="rgba(118, 10, 184, 1)"></use><use xlink:href="#SvgjsG1132" transform="translate(496.79999999999995, 441.59999999999997) scale(2.3)" fill="rgba(118, 10, 184, 1)"></use><use xlink:href="#SvgjsG1133" transform="translate(496.79999999999995, 496.79999999999995) scale(2.3)" fill="rgba(118, 10, 184, 1)"></use></g></defs></svg>