<svg xmlns="http://www.w3.org/2000/svg" version="1.1" xmlns:xlink="http://www.w3.org/1999/xlink" xmlns:svgjs="http://svgjs.com/svgjs" width="1440" height="560" preserveAspectRatio="none" viewBox="0 0 1440 560"><g mask="url(&quot;#SvgjsMask1021&quot;)" fill="none"><rect width="1440" height="560" x="0" y="0" fill="rgba(15, 147, 199, 1)"></rect><path d="M1381 26L1593 238" stroke-width="10" stroke="url(#SvgjsLinearGradient1022)" stroke-linecap="round" class="BottomRight"></path><path d="M337 400L561 624" stroke-width="6" stroke="url(#SvgjsLinearGradient1022)" stroke-linecap="round" class="BottomRight"></path><path d="M1223 545L908 230" stroke-width="10" stroke="url(#SvgjsLinearGradient1022)" stroke-linecap="round" class="BottomRight"></path><path d="M396 295L3 -98" stroke-width="10" stroke="url(#SvgjsLinearGradient1022)" stroke-linecap="round" class="BottomRight"></path><path d="M649 134L1065 550" stroke-width="6" stroke="url(#SvgjsLinearGradient1022)" stroke-linecap="round" class="BottomRight"></path><path d="M1011 470L1226 685" stroke-width="10" stroke="url(#SvgjsLinearGradient1022)" stroke-linecap="round" class="BottomRight"></path><path d="M1102 212L1493 603" stroke-width="6" stroke="url(#SvgjsLinearGradient1023)" stroke-linecap="round" class="TopLeft"></path><path d="M1220 232L1633 645" stroke-width="8" stroke="url(#SvgjsLinearGradient1022)" stroke-linecap="round" class="BottomRight"></path><path d="M1211 227L1016 32" stroke-width="6" stroke="url(#SvgjsLinearGradient1022)" stroke-linecap="round" class="BottomRight"></path><path d="M670 526L916 772" stroke-width="6" stroke="url(#SvgjsLinearGradient1023)" stroke-linecap="round" class="TopLeft"></path><path d="M341 213L697 569" stroke-width="10" stroke="url(#SvgjsLinearGradient1023)" stroke-linecap="round" class="TopLeft"></path><path d="M1277 471L1480 674" stroke-width="10" stroke="url(#SvgjsLinearGradient1023)" stroke-linecap="round" class="TopLeft"></path><path d="M509 23L101 -385" stroke-width="6" stroke="url(#SvgjsLinearGradient1023)" stroke-linecap="round" class="TopLeft"></path><path d="M622 158L481 17" stroke-width="8" stroke="url(#SvgjsLinearGradient1022)" stroke-linecap="round" class="BottomRight"></path><path d="M851 301L462 -88" stroke-width="10" stroke="url(#SvgjsLinearGradient1023)" stroke-linecap="round" class="TopLeft"></path><path d="M636 501L989 854" stroke-width="10" stroke="url(#SvgjsLinearGradient1022)" stroke-linecap="round" class="BottomRight"></path><path d="M1012 1L623 -388" stroke-width="8" stroke="url(#SvgjsLinearGradient1022)" stroke-linecap="round" class="BottomRight"></path><path d="M1126 511L1369 754" stroke-width="8" stroke="url(#SvgjsLinearGradient1023)" stroke-linecap="round" class="TopLeft"></path><path d="M1407 190L1591 374" stroke-width="10" stroke="url(#SvgjsLinearGradient1022)" stroke-linecap="round" class="BottomRight"></path><path d="M267 293L457 483" stroke-width="8" stroke="url(#SvgjsLinearGradient1022)" stroke-linecap="round" class="BottomRight"></path><path d="M696 459L868 631" stroke-width="6" stroke="url(#SvgjsLinearGradient1023)" stroke-linecap="round" class="TopLeft"></path><path d="M1178 338L1332 492" stroke-width="10" stroke="url(#SvgjsLinearGradient1023)" stroke-linecap="round" class="TopLeft"></path><path d="M380 102L-21 -299" stroke-width="8" stroke="url(#SvgjsLinearGradient1023)" stroke-linecap="round" class="TopLeft"></path><path d="M458 55L614 211" stroke-width="8" stroke="url(#SvgjsLinearGradient1023)" stroke-linecap="round" class="TopLeft"></path><path d="M259 221L-98 -136" stroke-width="8" stroke="url(#SvgjsLinearGradient1023)" stroke-linecap="round" class="TopLeft"></path><path d="M461 117L776 432" stroke-width="8" stroke="url(#SvgjsLinearGradient1023)" stroke-linecap="round" class="TopLeft"></path><path d="M188 376L-107 81" stroke-width="8" stroke="url(#SvgjsLinearGradient1023)" stroke-linecap="round" class="TopLeft"></path><path d="M590 105L970 485" stroke-width="6" stroke="url(#SvgjsLinearGradient1022)" stroke-linecap="round" class="BottomRight"></path><path d="M298 523L3 228" stroke-width="10" stroke="url(#SvgjsLinearGradient1023)" stroke-linecap="round" class="TopLeft"></path><path d="M1411 407L1608 604" stroke-width="10" stroke="url(#SvgjsLinearGradient1023)" stroke-linecap="round" class="TopLeft"></path><path d="M134 552L-210 208" stroke-width="8" stroke="url(#SvgjsLinearGradient1023)" stroke-linecap="round" class="TopLeft"></path><path d="M376 220L40 -116" stroke-width="8" stroke="url(#SvgjsLinearGradient1022)" stroke-linecap="round" class="BottomRight"></path><path d="M673 117L391 -165" stroke-width="10" stroke="url(#SvgjsLinearGradient1023)" stroke-linecap="round" class="TopLeft"></path><path d="M763 77L473 -213" stroke-width="10" stroke="url(#SvgjsLinearGradient1022)" stroke-linecap="round" class="BottomRight"></path><path d="M319 288L512 481" stroke-width="6" stroke="url(#SvgjsLinearGradient1022)" stroke-linecap="round" class="BottomRight"></path><path d="M15 224L-359 -150" stroke-width="8" stroke="url(#SvgjsLinearGradient1022)" stroke-linecap="round" class="BottomRight"></path><path d="M678 242L322 -114" stroke-width="6" stroke="url(#SvgjsLinearGradient1022)" stroke-linecap="round" class="BottomRight"></path><path d="M988 402L749 163" stroke-width="10" stroke="url(#SvgjsLinearGradient1022)" stroke-linecap="round" class="BottomRight"></path><path d="M952 45L647 -260" stroke-width="6" stroke="url(#SvgjsLinearGradient1023)" stroke-linecap="round" class="TopLeft"></path></g><defs><mask id="SvgjsMask1021"><rect width="1440" height="560" fill="#ffffff"></rect></mask><linearGradient x1="0%" y1="0%" x2="100%" y2="100%" id="SvgjsLinearGradient1022"><stop stop-color="rgba(156, 205, 21, 0)" offset="0"></stop><stop stop-color="rgba(156, 205, 21, 1)" offset="1"></stop></linearGradient><linearGradient x1="100%" y1="100%" x2="0%" y2="0%" id="SvgjsLinearGradient1023"><stop stop-color="rgba(156, 205, 21, 0)" offset="0"></stop><stop stop-color="rgba(156, 205, 21, 1)" offset="1"></stop></linearGradient></defs></svg>